<?xml version="1.0" encoding="UTF-8"?>
<svg width="40px" height="50px" viewBox="0 0 40 50" version="1.1" xmlns="http://www.w3.org/2000/svg" xmlns:xlink="http://www.w3.org/1999/xlink">
    <title>Shape</title>
    <g id="Icons" stroke="none" stroke-width="1" fill="none" fill-rule="evenodd">
        <g id="Artboard" transform="translate(-24, -288)" fill="#FAFCFF" fill-rule="nonzero">
            <path d="M51.5,313 C58.4035594,313 64,318.596441 64,325.5 L64,337 C64,337.552285 63.5522847,338 63,338 L25,338 C24.4477153,338 24,337.552285 24,337 L24,325.5 C24,318.596441 29.5964406,313 36.5,313 L51.5,313 Z M51.5,317 L36.5,317 C31.8055796,317 28,320.80558 28,325.5 L28,334 L60,334 L60,325.5 C60,320.890933 56.331547,317.138679 51.7551603,317.003757 L51.5,317 Z M44,288 C50.0751322,288 55,292.924868 55,299 C55,305.075132 50.0751322,310 44,310 C37.9248678,310 33,305.075132 33,299 C33,292.924868 37.9248678,288 44,288 Z M44,292 C40.1340068,292 37,295.134007 37,299 C37,302.865993 40.1340068,306 44,306 C47.8659932,306 51,302.865993 51,299 C51,295.134007 47.8659932,292 44,292 Z" id="Shape"></path>
        </g>
    </g>
</svg>