<?xml version="1.0" encoding="UTF-8"?>
<svg width="50px" height="30px" viewBox="0 0 50 30" version="1.1" xmlns="http://www.w3.org/2000/svg" xmlns:xlink="http://www.w3.org/1999/xlink">
    <title>Shape</title>
    <g id="Icons" stroke="none" stroke-width="1" fill="none" fill-rule="evenodd">
        <g id="Artboard" transform="translate(-104, -490)" fill="#FAFCFF" fill-rule="nonzero">
            <path d="M114.585786,493.585786 C115.366835,492.804738 116.633165,492.804738 117.414214,493.585786 C118.195262,494.366835 118.195262,495.633165 117.414214,496.414214 L108.829,505 L117.414214,513.585786 C118.154154,514.325727 118.193099,515.501211 117.531046,516.286999 L117.414214,516.414214 C116.633165,517.195262 115.366835,517.195262 114.585786,516.414214 L104.585786,506.414214 C103.804738,505.633165 103.804738,504.366835 104.585786,503.585786 L114.585786,493.585786 Z M143.414214,493.585786 C142.633165,492.804738 141.366835,492.804738 140.585786,493.585786 C139.804738,494.366835 139.804738,495.633165 140.585786,496.414214 L149.171,505 L140.585786,513.585786 C139.845846,514.325727 139.806901,515.501211 140.468954,516.286999 L140.585786,516.414214 C141.366835,517.195262 142.633165,517.195262 143.414214,516.414214 L153.414214,506.414214 C154.195262,505.633165 154.195262,504.366835 153.414214,503.585786 L143.414214,493.585786 Z M132.133309,491.282042 C132.529826,490.251097 133.687013,489.736791 134.717958,490.133309 C135.748903,490.529826 136.263209,491.687013 135.866691,492.717958 L125.866691,518.717958 C125.470174,519.748903 124.312987,520.263209 123.282042,519.866691 C122.251097,519.470174 121.736791,518.312987 122.133309,517.282042 L132.133309,491.282042 Z" id="Shape"></path>
        </g>
    </g>
</svg>