<?xml version="1.0" encoding="UTF-8"?>
<svg width="50px" height="42px" viewBox="0 0 50 42" version="1.1" xmlns="http://www.w3.org/2000/svg" xmlns:xlink="http://www.w3.org/1999/xlink">
    <title>read-book-icon</title>
    <g id="Icons" stroke="none" stroke-width="1" fill="none" fill-rule="evenodd">
        <g id="Artboard" transform="translate(-805, -143)" fill="#FAFCFF" fill-rule="nonzero">
            <g id="read-book-icon" transform="translate(805, 143)">
                <path d="M5.14322917,31.4420149 L5.26936849,9.09500965 L2.74658203,9.09500965 L2.74658203,37.5292544 C6.21337891,36.6340721 9.69238281,36.0644107 13.1958008,36.0399966 C16.4306641,36.0196516 19.6655273,36.4713117 22.9085286,37.5699445 C20.8943685,35.9382714 18.6482747,34.7379133 16.2516276,33.9566633 C13.2324219,32.9719628 9.96907552,32.6464419 6.62434896,32.9312727 C5.86751302,32.9923078 5.20833333,32.4307844 5.14322917,31.6780175 C5.13509115,31.5966373 5.13509115,31.5193261 5.14322917,31.4420149 L5.14322917,31.4420149 Z M42.1630859,7.92720366 C42.1549479,7.86209949 42.1468099,7.79292631 42.1468099,7.71968413 C42.1468099,7.65051095 42.1508789,7.58133777 42.1630859,7.51216459 L42.1630859,2.98742501 C38.9892578,2.68631824 35.7177734,3.03625314 32.8613281,4.11860991 C30.1920573,5.1317935 27.8889974,6.79601876 26.3916016,9.18045887 L26.3916016,34.9535708 C28.7190755,33.3992089 31.0994466,32.1215396 33.5449219,31.2507714 C36.332194,30.2579328 39.1967773,29.7859276 42.1630859,30.0219302 L42.1630859,7.92720366 L42.1630859,7.92720366 Z M44.909668,6.34842762 L48.6287435,6.34842762 C49.3855794,6.34842762 50,6.96284819 50,7.71968413 L50,39.319619 C50,40.076455 49.3855794,40.6908755 48.6287435,40.6908755 C48.4741211,40.6908755 48.3235677,40.6664615 48.1852214,40.6176333 C44.3603516,39.5230695 40.5598958,38.7947167 36.7960612,38.7703026 C33.1258138,38.7458886 29.4596354,39.3928612 25.777181,41.0163964 C25.5493164,41.1669498 25.2766927,41.24833 24.995931,41.2444065 C24.7192383,41.24833 24.4466146,41.1669498 24.214681,41.0163964 C20.5362956,39.3887922 16.8660482,38.7458886 13.1958008,38.7703026 C9.43196615,38.7947167 5.63557943,39.5230695 1.80664063,40.6176333 C1.66829427,40.6664615 1.51774089,40.6908755 1.36311849,40.6908755 C0.614420573,40.6949445 0,40.080524 0,39.323688 L0,7.71968413 C0,6.96284819 0.614420573,6.34842762 1.37125651,6.34842762 L5.28157552,6.34842762 L5.30598958,1.76672189 C5.31005859,1.1075422 5.77392578,0.562294803 6.39648438,0.43208647 L6.39648438,0.43208647 C10.0056966,-0.320680457 14.3920898,-0.133505978 18.2373047,1.33947579 C20.8943685,2.3567284 23.3072917,3.98026355 25.0691732,6.32401355 C26.8473307,4.13895496 29.2236328,2.56831694 31.8969727,1.55513334 C35.550944,0.167600793 39.7664388,-0.166058061 43.733724,0.415810428 C44.4173177,0.513466678 44.905599,1.10347319 44.905599,1.7707909 L44.905599,1.7707909 L44.905599,6.34842762 L44.909668,6.34842762 Z M27.722168,37.362425 C30.7535807,36.4102766 33.7809245,36.0196516 36.8082682,36.0359276 C40.3116862,36.0562727 43.7906901,36.6300031 47.257487,37.5251854 L47.257487,9.09500965 L44.909668,9.09500965 L44.909668,31.5640852 C44.909668,32.3209211 44.2952474,32.9353417 43.5384115,32.9353417 C43.4285482,32.9353417 43.3227539,32.9231346 43.2210286,32.8987206 C40.218099,32.4267154 37.3087565,32.8173404 34.4685872,33.830524 C32.1818034,34.6483951 29.9357096,35.8690982 27.722168,37.362425 L27.722168,37.362425 Z M23.6490885,34.6890852 L23.6490885,9.13976876 C22.2127279,6.60477527 19.8893229,4.90799793 17.2648112,3.90295236 C14.2903646,2.76362944 10.949707,2.50728178 8.03629557,2.92232084 L7.88167318,30.1073794 C11.0595703,29.9934471 14.1682943,30.3962792 17.0939128,31.3524966 C19.4213867,32.1093326 21.6267904,33.2201724 23.6490885,34.6890852 L23.6490885,34.6890852 Z" id="Shape"></path>
            </g>
        </g>
    </g>
</svg>