<?xml version="1.0" encoding="UTF-8"?>
<svg width="50px" height="40px" viewBox="0 0 50 40" version="1.1" xmlns="http://www.w3.org/2000/svg" xmlns:xlink="http://www.w3.org/1999/xlink">
    <title>Shape</title>
    <g id="Icons" stroke="none" stroke-width="1" fill="none" fill-rule="evenodd">
        <g id="Artboard" transform="translate(-40, -485)" fill="#FAFCFF" fill-rule="nonzero">
            <path d="M42.0161177,507.000266 L41.8981917,506.99711 L41.7555064,506.985469 L41.6602967,506.970918 C41.5719732,506.956253 41.4857616,506.935538 41.4019599,506.909361 L41.2580737,506.857543 C41.1749165,506.824726 41.094553,506.786231 41.0173835,506.742665 L40.8324323,506.62424 L40.7192997,506.536474 L40.5844701,506.413236 L40.5462036,506.373173 C40.495996,506.320707 40.4488889,506.26511 40.4048779,506.20703 L40.2919782,506.040734 C40.1794798,505.85723 40.0960073,505.653677 40.0477277,505.436749 L40.0173408,505.264797 L40.0016339,505.083055 L39.9999986,504.983552 L40.0037189,504.875948 L40.0266112,504.67248 L40.047814,504.563393 C40.0847519,504.397028 40.1424109,504.238599 40.2178987,504.090856 L40.3467985,503.873698 L40.4052339,503.793203 L40.47323,503.707772 L40.610775,503.560973 L40.7729799,503.420744 L40.9043185,503.326874 C40.9786275,503.27769 41.0564941,503.233555 41.1373952,503.194774 L41.2781965,503.134542 C41.3594507,503.102641 41.443306,503.07618 41.5293281,503.055378 L41.6984257,503.022939 L41.8395107,503.005997 L42.0161177,502.999734 C44.4538897,503.019381 45.3522675,502.089416 45.3522675,499.459215 L45.3522675,492.555932 C45.3522675,487.660051 48.5350474,485 53.9999986,485 C55.1045695,485 55.9999986,485.895431 55.9999986,487 C55.9999986,488.104569 55.1045695,489 53.9999986,489 C50.6013093,489 49.3522675,490.043904 49.3522675,492.555932 L49.3522675,499.459215 C49.3522675,501.836696 48.7012463,503.714068 47.4763908,505.000948 C48.7015864,506.286913 49.3522675,508.163926 49.3522675,510.540785 L49.3522675,517.444068 C49.3522675,519.956096 50.6013093,521 53.9999986,521 C55.1045695,521 55.9999986,521.895431 55.9999986,523 C55.9999986,524.104569 55.1045695,525 53.9999986,525 C48.5350474,525 45.3522675,522.339949 45.3522675,517.444068 L45.3522675,510.540785 C45.3522675,507.910584 44.4538897,506.980619 42.0161177,507.000266 Z M87.9838823,502.999734 L88.1018083,503.00289 L88.2444936,503.014531 L88.3397033,503.029082 L88.4657664,503.054268 L88.6124009,503.095835 L88.7388809,503.141243 C88.8227936,503.174202 88.9038614,503.212929 88.9816814,503.256807 L89.1685191,503.376446 L89.2338468,503.426157 C89.2974632,503.475471 89.3577092,503.528923 89.414553,503.585786 L89.5082068,503.68609 L89.5951221,503.79297 L89.6356043,503.849045 C89.7305019,503.98291 89.8091673,504.1296 89.8688453,504.285733 L89.9250525,504.455819 L89.9520521,504.562263 L89.9826592,504.735203 L89.996281,504.875987 L90.0000014,505.016448 L89.9962811,505.124052 L89.9699039,505.348073 L89.9360929,505.503918 L89.8996572,505.627698 C89.8896901,505.65718 89.8794122,505.685988 89.8685007,505.714485 C89.8119892,505.863017 89.7378987,506.003197 89.6490341,506.132385 L89.564549,506.246354 L89.463508,506.363496 L89.4148684,506.413236 C89.359595,506.469267 89.3003594,506.521992 89.2381433,506.571096 L89.0956815,506.673126 C88.9851122,506.746315 88.8666621,506.808318 88.7420599,506.85814 L88.588119,506.911794 L88.4657549,506.945746 L88.3015743,506.977061 L88.1604893,506.994003 L87.9838823,507.000266 C85.5461103,506.980619 84.6477325,507.910584 84.6477325,510.540785 L84.6477325,517.444068 C84.6477325,522.339949 81.4649526,525 76.0000014,525 C74.8954305,525 74.0000014,524.104569 74.0000014,523 C74.0000014,521.895431 74.8954305,521 76.0000014,521 C79.3986907,521 80.6477325,519.956096 80.6477325,517.444068 L80.6477325,510.540785 C80.6477325,508.163926 81.2984136,506.286913 82.5226494,505.00006 C81.2987537,503.714068 80.6477325,501.836696 80.6477325,499.459215 L80.6477325,492.555932 C80.6477325,490.043904 79.3986907,489 76.0000014,489 C74.8954305,489 74.0000014,488.104569 74.0000014,487 C74.0000014,485.895431 74.8954305,485 76.0000014,485 C81.4649526,485 84.6477325,487.660051 84.6477325,492.555932 L84.6477325,499.459215 C84.6477325,502.089416 85.5461103,503.019381 87.9838823,502.999734 Z" id="Shape"></path>
        </g>
    </g>
</svg>