<?xml version="1.0" encoding="UTF-8"?>
<svg width="50px" height="29px" viewBox="0 0 50 29" version="1.1" xmlns="http://www.w3.org/2000/svg" xmlns:xlink="http://www.w3.org/1999/xlink">
    <title>dumbbell-svgrepo-com</title>
    <g id="Icons" stroke="none" stroke-width="1" fill="none" fill-rule="evenodd">
        <g id="Artboard" transform="translate(-761, -308)" fill="#FAFCFF" fill-rule="nonzero">
            <g id="dumbbell-svgrepo-com" transform="translate(761, 308)">
                <path d="M49.1402739,9.80365689 C48.6651148,9.80365689 48.2798479,10.2893151 48.2798479,10.8869637 C48.2798479,12.5450211 48.2798479,15.6965501 48.2798479,17.3536076 C48.2798479,17.9512562 48.6652148,18.4359145 49.1412739,18.4359145 C49.616433,18.4359145 50,17.9511562 50,17.3536076 C50,15.69755 50,12.5459211 50,10.8859638 C50,10.2893151 49.6154331,9.80365689 49.1402739,9.80365689 Z" id="Path"></path>
                <path d="M0.861525909,9.80365689 C0.386366772,9.80365689 0,10.2893151 0,10.8869637 C0,12.546921 0,15.6936503 0.000999914007,17.3517078 C0.000999914007,17.9493564 0.386366772,18.4340147 0.861525909,18.4360145 C1.33678504,18.4360145 1.72115198,17.9512562 1.72115198,17.3537076 C1.72115198,15.6966501 1.72115198,12.546021 1.72215189,10.8860638 C1.7220519,10.2893151 1.33678504,9.80365689 0.861525909,9.80365689 Z" id="Path"></path>
                <path d="M11.4558148,0 C9.87055113,0 8.58446174,1.45427493 8.58446174,3.24712075 C8.58446174,8.68205334 8.58546165,19.5594179 8.58646156,24.9923507 C8.58646156,26.7851965 9.87055113,28.2393714 11.4559148,28.2393714 C13.0412785,28.2393714 14.3272679,26.7841966 14.3272679,24.9923507 C14.3272679,22.860934 14.3272679,19.8882896 14.3272679,16.7385605 C15.9824255,16.7385605 30.7971514,16.7385605 35.2128717,16.7385605 C35.2128717,19.8892895 35.2128717,22.860934 35.2128717,24.9933506 C35.2128717,26.7851965 36.4988611,28.2393714 38.0843247,28.2393714 C39.6695884,28.2393714 40.953778,26.7841966 40.953778,24.9923507 C40.953778,19.5574181 40.953778,8.68005352 40.953778,3.24712075 C40.953778,1.45337501 39.6694884,0 38.0843247,0 C36.4989611,0 35.2128717,1.4523751 35.2128717,3.24712075 C35.2128717,5.37843745 35.2128717,8.35018188 35.2128717,11.5007109 C30.7954516,11.5007109 15.9824255,11.5007109 14.3272679,11.5007109 C14.3272679,8.35018188 14.3272679,5.37833746 14.3272679,3.24612083 C14.3272679,1.45247509 13.0421784,0 11.4558148,0 Z" id="Path"></path>
                <path d="M44.756351,4.337227 C44.662559,4.337227 44.569867,4.337227 44.4752751,4.337227 C43.2808778,4.337227 42.3113612,5.30394386 42.3113612,6.500041 C42.3113612,10.2644173 42.3113612,17.9750541 42.3113612,21.7393304 C42.3113612,22.9345276 43.2807779,23.9041442 44.4759751,23.9041442 C44.569767,23.9041442 44.6644589,23.9041442 44.7571509,23.9041442 C45.9523481,23.9041442 46.9217647,22.9374274 46.9217647,21.7412303 C46.9217647,17.9778539 46.9217647,10.2663171 46.9209648,6.50184084 C46.9219647,5.3058437 45.9515482,4.337227 44.756351,4.337227 Z" id="Path"></path>
                <path d="M5.21115184,4.337227 C5.1174599,4.337227 5.02276804,4.337227 4.9290761,4.337227 C3.73387889,4.337227 2.76526219,5.30394386 2.76526219,6.500041 C2.76526219,10.2644173 2.76526219,17.9750541 2.76526219,21.7393304 C2.76526219,22.9355275 3.73387889,23.9041442 4.9290761,23.9041442 C5.02276804,23.9041442 5.1174599,23.9041442 5.21015193,23.9041442 C6.40534914,23.9041442 7.37396661,22.9374274 7.37396661,21.7412303 C7.37396661,17.9778539 7.37396661,10.2663171 7.37396661,6.50184084 C7.37496575,5.3058437 6.40634905,4.337227 5.21115184,4.337227 Z" id="Path"></path>
            </g>
        </g>
    </g>
</svg>