<svg width="130" height="131" viewBox="0 0 130 131" fill="none" xmlns="http://www.w3.org/2000/svg">
<path fill-rule="evenodd" clip-rule="evenodd" d="M53.9566 4.42227L0 55.8886V56V115C0 123.837 7.16344 131 16 131H114C122.837 131 130 123.837 130 115V56V55.8886L76.0434 4.42227C69.8617 -1.47409 60.1383 -1.47409 53.9566 4.42227Z" fill="url(#paint0_linear_228_1441)"/>
<path d="M4 39C4 30.1634 11.1634 23 20 23H110C118.837 23 126 30.1634 126 39V82C126 90.8366 118.837 98 110 98H20C11.1634 98 4 90.8366 4 82V39Z" fill="white"/>
<circle cx="65" cy="51" r="16" fill="url(#paint1_linear_228_1441)"/>
<path d="M58 50L63.5 56.5L74 47" stroke="#FAFCFF" stroke-width="4" stroke-linecap="round" stroke-linejoin="round"/>
<path d="M0 56V115C0 123.837 7.16344 131 16 131H114C122.837 131 130 123.837 130 115V56L74.0386 94.312C68.5901 98.0421 61.4099 98.0421 55.9614 94.312L0 56Z" fill="url(#paint2_linear_228_1441)"/>
<defs>
<linearGradient id="paint0_linear_228_1441" x1="0" y1="0" x2="66.0688" y2="98.7662" gradientUnits="userSpaceOnUse">
<stop stop-color="#007BA1" stop-opacity="0.8"/>
<stop offset="1" stop-color="#0048A1" stop-opacity="0.8"/>
</linearGradient>
<linearGradient id="paint1_linear_228_1441" x1="49" y1="35" x2="81" y2="67" gradientUnits="userSpaceOnUse">
<stop stop-color="#32CD32"/>
<stop offset="1" stop-color="#008000"/>
</linearGradient>
<linearGradient id="paint2_linear_228_1441" x1="0" y1="56" x2="95.1583" y2="162.215" gradientUnits="userSpaceOnUse">
<stop stop-color="#007BA1"/>
<stop offset="1" stop-color="#0048A1"/>
</linearGradient>
</defs>
</svg>
