<?xml version="1.0" encoding="UTF-8"?>
<svg width="40px" height="46px" viewBox="0 0 40 46" version="1.1" xmlns="http://www.w3.org/2000/svg" xmlns:xlink="http://www.w3.org/1999/xlink">
    <title>Shape</title>
    <g id="Icons" stroke="none" stroke-width="1" fill="none" fill-rule="evenodd">
        <g id="Artboard" transform="translate(-93, -293)" fill="#FAFCFF" fill-rule="nonzero">
            <path d="M125,293 C126.104569,293 127,293.895431 127,295 L127,320 C127,321.104569 126.104569,322 125,322 C123.895431,322 123,321.104569 123,320 L123,297 L97,297 L97,335 L113,335 C114.054362,335 114.918165,335.815878 114.994514,336.850738 L115,337 C115,338.104569 114.104569,339 113,339 L95,339 C93.8954305,339 93,338.104569 93,337 L93,295 C93,293.895431 93.8954305,293 95,293 L125,293 Z M132.309929,324.527921 C133.132476,325.265139 133.20165,326.529578 132.464432,327.352125 L125.294337,335.352125 C124.493317,336.24586 123.091023,336.237783 122.300352,335.33488 L117.470447,329.819398 C116.742754,328.988412 116.826488,327.724854 117.657473,326.997161 C118.488458,326.269467 119.752017,326.353202 120.47971,327.184187 L123.822078,331.001275 L129.485725,324.682424 C130.222943,323.859877 131.487382,323.790704 132.309929,324.527921 Z M111,317 C112.104569,317 113,317.895431 113,319 C113,320.104569 112.104569,321 111,321 L103,321 C101.895431,321 101,320.104569 101,319 C101,317.895431 101.895431,317 103,317 L111,317 Z M117,309 C118.104569,309 119,309.895431 119,311 C119,312.104569 118.104569,313 117,313 L103,313 C101.895431,313 101,312.104569 101,311 C101,309.895431 101.895431,309 103,309 L117,309 Z M117,301 C118.104569,301 119,301.895431 119,303 C119,304.104569 118.104569,305 117,305 L103,305 C101.895431,305 101,304.104569 101,303 C101,301.895431 101.895431,301 103,301 L117,301 Z" id="Shape"></path>
        </g>
    </g>
</svg>