<?xml version="1.0" encoding="UTF-8"?>
<svg width="40px" height="50px" viewBox="0 0 40 50" version="1.1" xmlns="http://www.w3.org/2000/svg" xmlns:xlink="http://www.w3.org/1999/xlink">
    <title>Shape</title>
    <g id="Icons" stroke="none" stroke-width="1" fill="none" fill-rule="evenodd">
        <g id="Artboard" transform="translate(-241, -285)" fill="#FAFCFF" fill-rule="nonzero">
            <path d="M260.59036,285 C270.531486,285 278.903633,293.058875 278.903633,303 C278.903633,308.956734 275.179661,313.920328 270.631378,319.318764 L270.014268,320.036861 L270.713174,320.206174 C276.597279,321.69176 281,324.34588 281,327 C281,331 271,335 261,335 C251,335 241,331 241,327 C241,324.259029 245.695577,321.518058 251.869121,320.064131 C251.339266,319.456576 250.825701,318.854992 250.331595,318.246373 L249.414696,317.111522 C245.541516,312.284687 243,308.563396 243,303 C243,293.058875 250.649235,285 260.59036,285 Z M266.900196,323.494314 L266.136663,324.355249 L265.403864,325.190155 C263.928046,326.850061 262.381286,328.373494 260.59036,328.373494 C258.739909,328.373494 257.044739,326.014582 255.427126,324.116284 L254.918849,323.524797 C252.67885,323.907935 250.553545,324.486714 248.735563,325.213907 C247.334947,325.774153 246.219037,326.385961 245.494763,326.957526 L245.442,327.000182 L245.494763,327.042474 C246.15868,327.566409 247.151681,328.124158 248.391402,328.645011 L248.735563,328.786093 C252.161926,330.156639 256.679934,331 261,331 C265.320066,331 269.838074,330.156639 273.264437,328.786093 C274.665053,328.225847 275.780963,327.614039 276.505237,327.042474 L276.557,326.999 L276.505237,326.957526 C275.84132,326.433591 274.848319,325.875842 273.608598,325.354989 L273.264437,325.213907 C271.397567,324.467158 269.206623,323.876914 266.900196,323.494314 Z M260.59036,289 C252.965609,289 247,295.159253 247,303 L247.005931,303.452564 C247.105972,307.17155 248.50142,309.645724 253.437044,315.725225 L253.674836,316.015635 L254.36076,316.828619 C255.141757,317.730295 257.306532,320.173044 258.247379,321.260971 L259.144092,322.323968 L259.770547,323.069062 C260.103352,323.457541 260.36243,323.743813 260.585792,323.968029 L260.779,324.155 L260.856104,324.096452 L261.052898,323.932689 C261.453917,323.584951 261.911391,323.104154 262.639075,322.278 L263.124985,321.722798 C263.465747,321.332947 263.81347,320.942603 264.216687,320.496076 L266.219316,318.290028 C266.746941,317.70268 267.166865,317.222765 267.572356,316.741481 L268.200234,315.990606 C273.094017,310.091117 274.903633,306.731441 274.903633,303 C274.903633,295.347915 268.403092,289 260.59036,289 Z M261,294 C265.418278,294 269,297.581722 269,302 C269,306.418278 265.418278,310 261,310 C256.581722,310 253,306.418278 253,302 C253,297.581722 256.581722,294 261,294 Z M261,298 C258.790861,298 257,299.790861 257,302 C257,304.209139 258.790861,306 261,306 C263.209139,306 265,304.209139 265,302 C265,299.790861 263.209139,298 261,298 Z" id="Shape"></path>
        </g>
    </g>
</svg>