<?xml version="1.0" encoding="UTF-8"?>
<svg width="50px" height="40px" viewBox="0 0 50 40" version="1.1" xmlns="http://www.w3.org/2000/svg" xmlns:xlink="http://www.w3.org/1999/xlink">
    <title>Shape</title>
    <g id="Icons" stroke="none" stroke-width="1" fill="none" fill-rule="evenodd">
        <g id="Artboard" transform="translate(-391, -292)" fill="#FAFCFF" fill-rule="nonzero">
            <path d="M433,292 C437.418278,292 441,295.581722 441,300 L441,324 C441,328.418278 437.418278,332 433,332 L399,332 C394.581722,332 391,328.418278 391,324 L391,300 C391,295.581722 394.581722,292 399,292 L433,292 Z M425.352,311.412 L416.919198,315.776253 C416.342144,316.074874 415.65599,316.074566 415.079204,315.775425 L407.839,312.02 L397.715357,327.789247 C398.118562,327.925898 398.550627,328 399,328 L433,328 C433.500375,328 433.979291,327.908123 434.420798,327.740319 L425.352,311.412 Z M395,305.361 L395,324 C395,324.187442 395.012893,324.371873 395.03784,324.552454 L404.273,310.171 L395,305.361 Z M437,305.384 L428.907,309.572 L436.997606,324.139704 L437,324 L437,305.384 Z M433,296 L399,296 C396.790861,296 395,297.790861 395,300 L395,300.855 L416.000632,311.747417 L437,300.88 L437,300 C437,297.790861 435.209139,296 433,296 Z" id="Shape"></path>
        </g>
    </g>
</svg>