<?xml version="1.0" encoding="UTF-8"?>
<svg width="50px" height="50px" viewBox="0 0 50 50" version="1.1" xmlns="http://www.w3.org/2000/svg" xmlns:xlink="http://www.w3.org/1999/xlink">
    <title>Combined Shape</title>
    <g id="Icons" stroke="none" stroke-width="1" fill="none" fill-rule="evenodd">
        <g id="Artboard" transform="translate(-172, -480)" fill="#FAFCFF" fill-rule="nonzero">
            <path d="M219.639624,482.343146 C222.763818,485.46734 222.763818,490.53266 219.639624,493.656854 L189.941199,523.355398 C185.713092,527.582569 180.075526,529.791854 173.028503,529.983252 C172.476545,530.002549 172.016083,529.567956 172,529.015901 L172,528.962915 C172.193079,521.895522 174.40271,516.255076 178.627338,512.041537 L208.325916,482.343146 C211.45011,479.218951 216.51543,479.218951 219.639624,482.343146 Z M211.154334,485.171582 L181.452045,514.873679 C178.682086,517.636367 176.960212,521.170648 176.297129,525.589956 L176.280443,525.702 L176.39267,525.686755 C180.644726,525.047841 184.08424,523.422939 186.812543,520.820195 L187.112766,520.526977 L216.811197,490.828427 C218.373294,489.26633 218.373294,486.73367 216.811197,485.171573 C215.2491,483.609476 212.71644,483.609476 211.154334,485.171582 Z" id="Combined-Shape"></path>
        </g>
    </g>
</svg>